Coordinates
version=1
nRows=65
nColumns=12
inDegrees=yes

Units are S.I. units (second, meters, Newtons, ...)
Angles are in degrees

endheader
time	SC_y	SC_z	SC_x	AC_y	AC_z	AC_x	GH_y	GH_z	GH_yy	EL_x	PS_y
       0.0              -56.65          36.72          18.14          63.33         -2.682          19.39         -16.15         -10.54         -163.7          87.16          36.65
   0.01612              -56.65          36.72          18.14          63.32         -2.681          19.38         -16.14         -10.52         -163.7          87.17          36.66
   0.03223              -56.64          36.71          18.14          63.32         -2.681          19.38         -16.13         -10.51         -163.7          87.18          36.66
   0.04835              -56.64          36.71          18.14          63.31         -2.681          19.37         -16.11          -10.5         -163.6          87.19          36.66
   0.06447              -56.63          36.71          18.14          63.31         -2.681          19.37          -16.1         -10.49         -163.6          87.19          36.66
   0.08058              -56.63           36.7          18.14          63.31         -2.681          19.36         -16.08         -10.47         -163.6           87.2          36.67
    0.0967              -56.63           36.7          18.14           63.3          -2.68          19.35         -16.06         -10.46         -163.5          87.21          36.67
    0.1128              -56.62           36.7          18.14           63.3          -2.68          19.35         -16.04         -10.44         -163.5          87.22          36.68
    0.1289              -56.62          36.69          18.14          63.29          -2.68          19.34         -16.02         -10.42         -163.5          87.23          36.68
     0.145              -56.61          36.69          18.14          63.28         -2.679          19.33          -16.0          -10.4         -163.4          87.25          36.68
    0.1612               -56.6          36.68          18.14          63.28         -2.679          19.32         -15.97         -10.38         -163.4          87.26          36.69
    0.1773               -56.6          36.68          18.13          63.27         -2.679          19.31         -15.95         -10.36         -163.3          87.27          36.69
    0.1934              -56.59          36.67          18.13          63.26         -2.678           19.3         -15.92         -10.33         -163.2          87.29           36.7
    0.2095              -56.58          36.66          18.13          63.25         -2.678          19.29         -15.89         -10.31         -163.2           87.3           36.7
    0.2256              -56.57          36.66          18.13          63.24         -2.677          19.27         -15.86         -10.28         -163.1          87.32          36.71
    0.2417              -56.57          36.65          18.13          63.23         -2.677          19.26         -15.82         -10.25         -163.0          87.34          36.72
    0.2579              -56.56          36.64          18.13          63.22         -2.676          19.24         -15.78         -10.22         -163.0          87.36          36.73
     0.274              -56.55          36.63          18.13          63.21         -2.676          19.23         -15.74         -10.18         -162.9          87.38          36.73
    0.2901              -56.53          36.62          18.13           63.2         -2.675          19.21          -15.7         -10.14         -162.8           87.4          36.74
    0.3062              -56.52          36.61          18.13          63.19         -2.674          19.19         -15.65          -10.1         -162.7          87.43          36.75
    0.3223              -56.51           36.6          18.13          63.17         -2.674          19.17         -15.59         -10.05         -162.6          87.46          36.76
    0.3384              -56.49          36.59          18.13          63.15         -2.673          19.15         -15.53          -10.0         -162.4          87.49          36.78
    0.3546              -56.48          36.57          18.13          63.13         -2.672          19.12         -15.47         -9.942         -162.3          87.52          36.79
    0.3707              -56.46          36.56          18.13          63.11         -2.671          19.09         -15.39         -9.879         -162.2          87.56           36.8
    0.3868              -56.44          36.54          18.13          63.09          -2.67          19.06         -15.31         -9.808         -162.0           87.6          36.82
    0.4029              -56.41          36.52          18.12          63.07         -2.668          19.02         -15.22         -9.729         -161.8          87.65          36.84
     0.419              -56.39           36.5          18.12          63.04         -2.667          18.98         -15.12         -9.641         -161.6           87.7          36.86
    0.4351              -56.36          36.48          18.12           63.0         -2.665          18.94          -15.0         -9.541         -161.3          87.76          36.88
    0.4513              -56.32          36.45          18.12          62.97         -2.663          18.88         -14.87         -9.429         -161.1          87.83          36.91
    0.4674              -56.29          36.42          18.12          62.93         -2.661          18.83         -14.73         -9.301         -160.8          87.91          36.93
    0.4835              -56.24          36.38          18.12          62.88         -2.659          18.76         -14.56         -9.155         -160.4           88.0          36.97
    0.4996              -56.19          36.34          18.11          62.83         -2.656          18.68         -14.36         -8.988         -160.0           88.1          37.01
    0.5157              -56.14          36.29          18.11          62.76         -2.653           18.6         -14.14         -8.795         -159.6          88.21          37.05
    0.5318              -56.07          36.24          18.11          62.69         -2.649          18.49         -13.88         -8.571         -159.0          88.35           37.1
     0.548               -56.0          36.17           18.1          62.61         -2.645          18.37         -13.58         -8.309         -158.4          88.51          37.16
    0.5641               -55.9           36.1           18.1          62.51          -2.64          18.23         -13.22         -7.999         -157.6          88.69          37.23
    0.5802               -55.8          36.01          18.09          62.39         -2.634          18.06          -12.8         -7.632         -156.8          88.91          37.32
    0.5963              -55.67           35.9          18.08          62.24         -2.627          17.86         -12.29         -7.191         -155.7          89.18          37.42
    0.6124              -55.51          35.77          18.08          62.07         -2.618          17.62         -11.67         -6.658         -154.4           89.5          37.54
    0.6285              -55.32          35.61          18.06          61.86         -2.607          17.32         -10.92         -6.007         -152.9          89.89          37.69
    0.6447              -55.08          35.41          18.05           61.6         -2.594          16.95          -9.99         -5.203         -150.9          90.38          37.87
    0.6608              -54.79          35.17          18.04          61.28         -2.577           16.5         -8.832         -4.201         -148.5          90.98           38.1
    0.6769              -54.42          34.86          18.02          60.87         -2.556          15.92         -7.373         -2.939         -145.5          91.74          38.38
     0.693              -53.95          34.46          17.99          60.35          -2.53          15.19         -5.518         -1.334         -141.6          92.71          38.75
    0.7091              -53.34          33.96          17.96          59.68         -2.496          14.25         -3.144         0.7202         -136.7          93.95          39.22
    0.7252              -52.57          33.31          17.91          58.83         -2.453          13.04       -0.09719          3.356         -130.4          95.54          39.82
    0.7414              -51.58          32.48          17.86          57.74         -2.397          11.51          3.794          6.723         -122.3          97.57          40.59
    0.7575              -50.34          31.45          17.79          56.37         -2.327          9.573          8.688          10.96         -112.1          100.1          41.55
    0.7736              -48.82          30.18          17.71           54.7         -2.242          7.217          14.65          16.12         -99.74          103.2          42.73
    0.7897              -47.07          28.71          17.61          52.76         -2.144          4.485          21.56           22.1         -85.38          106.8          44.09
    0.8058              -45.16          27.12          17.51          50.67         -2.037          1.527          29.05          28.57         -69.83          110.7          45.57
    0.8219              -43.26          25.53           17.4          48.57          -1.93          -1.43          36.53          35.05         -54.28          114.6          47.04
    0.8381              -41.51          24.07          17.31          46.63         -1.832         -4.162          43.44          41.03         -39.92          118.2          48.41
    0.8542              -39.99           22.8          17.22          44.96         -1.747         -6.518          49.41          46.19         -27.53          121.4          49.58
    0.8703              -38.75          21.76          17.16          43.59         -1.677         -8.452           54.3          50.42         -17.36          123.9          50.55
    0.8864              -37.76          20.93           17.1           42.5         -1.622          -9.99          58.19          53.79         -9.279          125.9          51.32
    0.9025              -36.98          20.29          17.06          41.65         -1.578         -11.19          61.24          56.42         -2.949          127.5          51.92
    0.9186              -36.38          19.78          17.03          40.99         -1.544         -12.13          63.61          58.48          1.983          128.8          52.39
    0.9348              -35.91          19.39           17.0          40.47         -1.518         -12.87          65.47          60.08          5.837          129.7          52.75
    0.9509              -35.54          19.08          16.98          40.06         -1.497         -13.44          66.93          61.35          8.868          130.5          53.04
     0.967              -35.25          18.83          16.96          39.73         -1.481          -13.9          68.08          62.35          11.27          131.1          53.27
    0.9831              -35.01          18.64          16.95          39.47         -1.467         -14.27          69.01          63.15           13.2          131.6          53.45
    0.9992              -34.82          18.48          16.94          39.26         -1.457         -14.56          69.76           63.8          14.77          132.0           53.6
     1.015              -34.66          18.35          16.93          39.09         -1.448         -14.81          70.38          64.34          16.05          132.3          53.72
     1.031              -34.53          18.24          16.93          38.95         -1.441         -15.01          70.89          64.78          17.11          132.6          53.82
